# xmcd CD database file
#
# Track frame offsets:
#	182
#	13392
#	25210
#	39635
#	56887
#	72392
#	86312
#	100652
#	113872
#	127645
#	144422
#	157425
#	173007
#	183872
#	199207
#
# Disc length: 2883 seconds
#
# Revision: 0
# Processed by: cddbd v1.5.2PL0 Copyright (c) Steve Scherf et al.
# Submitted via: CDex 1.79
#
DISCID=cd0b410f
DTITLE=Michael Booth Palmer - Wheel Of Romance
DYEAR=1994
DGENRE=Country
TTITLE0=Mama`s Got Me Rockin`
TTITLE1=Kiss This Cowboy Goodbye
TTITLE2=You Make Me Swoon
TTITLE3=Lovin` Talk
TTITLE4=Don`t Turn Me Off
TTITLE5=Probably A Star
TTITLE6=Wedding Night
TTITLE7=Here`s To Life
TTITLE8=Hugs And Kisses Shirley
TTITLE9=You`re All I`ll Ever Need
TTITLE10=Wheel Of Romance
TTITLE11=82 And Dreamin` 
TTITLE12=Pushin` Thirty
TTITLE13=No Regrets
TTITLE14=Lovin` Talk (instrumental)
EXTD=YEAR: 1994
EXTT0=
EXTT1=
EXTT2=
EXTT3=
EXTT4=
EXTT5=
EXTT6=
EXTT7=
EXTT8=
EXTT9=
EXTT10=
EXTT11=
EXTT12=
EXTT13=
EXTT14=
PLAYORDER=
